# File created by Blade
# Date/Time:  Tue Sep 30 19:29:03 2014
#---------------------------------------------------------
:version 1.10
:name HOM
:units
  mass 1.0
  length 1.000000
  angle deg
:documentation
     Acclaim Skeleton File
:root
   axis xyz
   order TX TY TZ RX RY RZ
   position 0.000000 0.000000 0.000000
   orientation 0 0 0
:bonedata
   begin
      id 1
      name RightUpLeg_dum
      direction -1.000000 0.000000 0.000000
      length 3.766986
      axis 0.0 0.0 0.0 xyz
   end
   begin
      id 2
      name LeftUpLeg_dum
      direction 1.000000 0.000000 0.000000
      length 3.766986
      axis 0.0 0.0 0.0 xyz
   end
   begin
      id 3
      name Spine_dum
      direction 0.000000 1.000000 0.000000
      length 7.779697
      axis 0.0 0.0 0.0 xyz
   end
   begin
      id 4
      name RightUpLeg
      direction 0.000000 -1.000000 0.000000
      length 18.017682
      axis 0.0 0.0 0.0 xyz
      dof rx ry rz
   end
   begin
      id 5
      name RightLeg
      direction 0.000000 -1.000000 0.000000
      length 16.881075
      axis 0.0 0.0 0.0 xyz
      dof rx ry rz
   end
   begin
      id 6
      name RightFoot
      direction 0.000000 -0.258819 0.965926
      length 5.770812
      axis 15.0 0.0 0.0 xyz
      dof rx ry rz
   end
   begin
      id 7
      name RightToeBase
      direction 0.000000 0.000000 1.000000
      length 2.952750
      axis 0.0 0.0 0.0 xyz
      dof rx ry rz
   end
   begin
      id 8
      name LeftUpLeg
      direction 0.000000 -1.000000 0.000000
      length 18.017682
      axis 0.0 0.0 0.0 xyz
      dof rx ry rz
   end
   begin
      id 9
      name LeftLeg
      direction 0.000000 -1.000000 0.000000
      length 16.881075
      axis 0.0 0.0 0.0 xyz
      dof rx ry rz
   end
   begin
      id 10
      name LeftFoot
      direction 0.000000 -0.258819 0.965926
      length 5.770812
      axis 15.0 0.0 0.0 xyz
      dof rx ry rz
   end
   begin
      id 11
      name LeftToeBase
      direction 0.000000 0.000000 1.000000
      length 2.952750
      axis 0.0 0.0 0.0 xyz
      dof rx ry rz
   end
   begin
      id 12
      name Spine
      direction 0.000000 1.000000 0.000000
      length 0.000000
      axis 0.0 0.0 0.0 xyz
      dof rx ry rz
   end
   begin
      id 13
      name Spine_dum1
      direction 0.000000 1.000000 0.000000
      length 10.941760
      axis 0.0 0.0 0.0 xyz
   end
   begin
      id 14
      name Spine_dum2
      direction 0.000000 1.000000 0.000000
      length 10.941760
      axis 0.0 0.0 0.0 xyz
   end
   begin
      id 15
      name Spine_dum3
      direction 0.000000 1.000000 0.000000
      length 16.646042
      axis 0.0 0.0 0.0 xyz
   end
   begin
      id 16
      name RightShoulder
      direction -1.000000 0.000000 0.000000
      length 7.708937
      axis 0.0 0.0 90.0 xyz
      dof rx ry rz
   end
   begin
      id 17
      name RightArm
      direction -1.000000 0.000000 0.000000
      length 11.521345
      axis 0.0 0.0 90.0 xyz
      dof rx ry rz
   end
   begin
      id 18
      name RightForeArm
      direction -1.000000 0.000000 0.000000
      length 10.175898
      axis 0.0 0.0 90.0 xyz
      dof ry rz rx
   end
   begin
      id 19
      name RightHand
      direction -1.000000 0.000000 0.000000
      length 0.000000
      axis 0.0 0.0 90.0 xyz
      dof rx ry rz
   end
   begin
      id 20
      name RightHand_dum1
      direction -1.000000 0.000000 0.000000
      length 3.937000
      axis 0.0 0.0 90.0 xyz
   end
   begin
      id 21
      name RightHand_dum2
      direction 0.000000 0.000000 0.000000
      length 0.000000
      axis 0.0 0.0 90.0 xyz
   end
   begin
      id 22
      name RightHandThumb1
      direction 0.000000 0.000000 1.000000
      length 3.937000
      axis 0.0 0.0 90.0 xyz
      dof rx rz ry
   end
   begin
      id 23
      name LeftShoulder
      direction 1.000000 0.000000 0.000000
      length 7.708937
      axis 0.0 0.0 -90.0 xyz
      dof rx ry rz
   end
   begin
      id 24
      name LeftArm
      direction 1.000000 0.000000 0.000000
      length 11.521345
      axis 0.0 0.0 -90.0 xyz
      dof rx ry rz
   end
   begin
      id 25
      name LeftForeArm
      direction 1.000000 0.000000 0.000000
      length 10.175898
      axis 0.0 0.0 -90.0 xyz
      dof ry rz rx
   end
   begin
      id 26
      name LeftHand
      direction 1.000000 0.000000 0.000000
      length 0.000000
      axis 0.0 0.0 -90.0 xyz
      dof rx ry rz
   end
   begin
      id 27
      name LeftHand_dum1
      direction 1.000000 0.000000 0.000000
      length 3.937000
      axis 0.0 0.0 -90.0 xyz
   end
   begin
      id 28
      name LeftHand_dum2
      direction 0.000000 0.000000 0.000000
      length 0.000000
      axis 0.0 0.0 -90.0 xyz
   end
   begin
      id 29
      name LeftHandThumb1
      direction 0.000000 0.000000 1.000000
      length 3.937000
      axis 0.0 0.0 -90.0 xyz
      dof rx rz ry
   end
   begin
      id 30
      name Head
      direction 0.000000 1.000000 0.000000
      length 4.527550
      axis 0.0 0.0 0.0 xyz
      dof rx ry rz
   end
:hierarchy
   begin
      root RightUpLeg_dum LeftUpLeg_dum Spine_dum
      RightUpLeg_dum RightUpLeg
      LeftUpLeg_dum LeftUpLeg
      Spine_dum Spine
      RightUpLeg RightLeg
      RightLeg RightFoot
      RightFoot RightToeBase
      LeftUpLeg LeftLeg
      LeftLeg LeftFoot
      LeftFoot LeftToeBase
      Spine Spine_dum1 Spine_dum2 Spine_dum3
      Spine_dum1 RightShoulder
      Spine_dum2 LeftShoulder
      Spine_dum3 Head
      RightShoulder RightArm
      RightArm RightForeArm
      RightForeArm RightHand
      RightHand RightHand_dum1 RightHand_dum2
      RightHand_dum2 RightHandThumb1
      LeftShoulder LeftArm
      LeftArm LeftForeArm
      LeftForeArm LeftHand
      LeftHand LeftHand_dum1 LeftHand_dum2
      LeftHand_dum2 LeftHandThumb1
   end

# File created by Blade
# Date/Time:  Mon Sep 22 16:09:39 2014
# Frame Rate: 120.000 fps
#------------------------------------------------------
:FULLY-SPECIFIED
:DEGREES
249
root 2.890529 37.000359 1.806454 -0.523936 -2.682723 1.695248
RightUpLeg 7.495305 -6.431648 -3.227242
RightLeg -4.760460 -0.000000 0.000000
RightFoot -12.961501 -15.833001 15.864605
RightToeBase 14.917978 -0.000000 -0.000000
LeftUpLeg 5.005934 0.331369 1.324568
LeftLeg -1.309719 -0.000000 0.000000
LeftFoot -10.114822 13.423748 -16.354198
LeftToeBase 9.578939 -0.000000 -0.000000
Spine 1.212980 -2.717300 -0.514488
RightShoulder 6.396992 -27.283514 -4.110467
RightArm 25.350411 -2.000513 79.830373
RightForeArm 92.746129 -0.000000 76.803641
RightHand 11.938762 -0.000000 16.794702
RightHandThumb1 -24.326973 -0.000000 -32.862282
LeftShoulder -18.005016 38.231055 -2.078314
LeftArm 49.881275 25.416684 -52.443546
LeftForeArm 24.270778 -0.000000 29.470290
LeftHand -13.245723 0.000000 -11.091066
LeftHandThumb1 -26.253704 0.000000 33.147579
Head 1.217767 8.870358 3.636769
250
root 2.890078 36.999872 1.807382 -0.530466 -2.688900 1.683607
RightUpLeg 7.503562 -6.447341 -3.213815
RightLeg -4.763939 -0.000000 0.000000
RightFoot -12.953085 -15.841645 15.835321
RightToeBase 14.927480 -0.000000 -0.000000
LeftUpLeg 5.022451 0.331791 1.335269
LeftLeg -1.323812 -0.000000 0.000000
LeftFoot -10.119208 13.438041 -16.336858
LeftToeBase 9.556363 -0.000000 -0.000000
Spine 1.223051 -2.730244 -0.501950
RightShoulder 6.397317 -27.278736 -4.118354
RightArm 25.348233 -2.053263 79.816049
RightForeArm 92.704598 -0.000000 76.800920
RightHand 11.936915 -0.000000 16.780633
RightHandThumb1 -24.326973 -0.000000 -32.862282
LeftShoulder -18.002947 38.240885 -2.064429
LeftArm 49.861563 25.392544 -52.485078
LeftForeArm 24.299726 -0.000000 29.424412
LeftHand -13.253912 -0.000000 -11.025718
LeftHandThumb1 -26.253704 0.000000 33.147579
Head 1.211727 8.879403 3.648016
251
root 2.890926 37.000455 1.806328 -0.523774 -2.702343 1.685091
RightUpLeg 7.490153 -6.442578 -3.213888
RightLeg -4.761407 -0.000000 0.000000
RightFoot -12.948373 -15.842905 15.824289
RightToeBase 14.941683 -0.000000 -0.000000
LeftUpLeg 5.010458 0.340953 1.333996
LeftLeg -1.312333 -0.000000 0.000000
LeftFoot -10.124931 13.428209 -16.359885
LeftToeBase 9.577491 -0.000000 -0.000000
Spine 1.221080 -2.727773 -0.503557
RightShoulder 6.392137 -27.281986 -4.114852
RightArm 25.358563 -2.097101 79.800719
RightForeArm 92.696058 0.000000 76.793552
RightHand 11.797853 -0.000000 16.843104
RightHandThumb1 -24.326973 -0.000000 -32.862282
LeftShoulder -17.995947 38.259550 -2.060263
LeftArm 49.857148 25.360886 -52.498762
LeftForeArm 24.313094 0.000000 29.385504
LeftHand -13.299251 -0.000000 -11.004537
LeftHandThumb1 -26.253704 0.000000 33.147579
Head 1.208537 8.878252 3.661649
252
root 2.891896 37.000395 1.807797 -0.535731 -2.723157 1.685461
RightUpLeg 7.499417 -6.438939 -3.224824
RightLeg -4.754857 -0.000000 0.000000
RightFoot -12.939187 -15.792309 15.850299
RightToeBase 14.899399 -0.000000 -0.000000
LeftUpLeg 5.030854 0.368820 1.332078
LeftLeg -1.319919 -0.000000 0.000000
LeftFoot -10.120487 13.430661 -16.346298
LeftToeBase 9.557327 -0.000000 -0.000000
Spine 1.235727 -2.725142 -0.506611
RightShoulder 6.407669 -27.296891 -4.125481
RightArm 25.373069 -2.131273 79.792739
RightForeArm 92.691028 -0.000000 76.793997
RightHand 11.797452 0.000000 16.832392
RightHandThumb1 -24.326973 -0.000000 -32.862282
LeftShoulder -17.987626 38.276390 -2.040912
LeftArm 49.851179 25.348882 -52.523697
LeftForeArm 24.300432 0.000000 29.342275
LeftHand -13.287365 -0.000000 -10.970258
LeftHandThumb1 -26.253704 0.000000 33.147579
Head 1.213488 8.889140 3.689287
253
root 2.892827 37.000217 1.807245 -0.534674 -2.745769 1.690560
RightUpLeg 7.490444 -6.454161 -3.230695
RightLeg -4.748410 -0.000000 0.000000
RightFoot -12.938349 -15.779060 15.819313
RightToeBase 14.906171 -0.000000 -0.000000
LeftUpLeg 5.032534 0.378611 1.325783
LeftLeg -1.320280 -0.000000 0.000000
LeftFoot -10.129101 13.429203 -16.377090
LeftToeBase 9.570333 -0.000000 -0.000000
Spine 1.236120 -2.720316 -0.515016
RightShoulder 6.422089 -27.304249 -4.130222
RightArm 25.379218 -2.153193 79.792775
RightForeArm 92.664323 -0.000000 76.784842
RightHand 11.766041 -0.000000 16.836669
RightHandThumb1 -24.326973 -0.000000 -32.862282
LeftShoulder -17.984250 38.287285 -2.021566
LeftArm 49.830987 25.326360 -52.566261
LeftForeArm 24.259633 -0.000000 29.317430
LeftHand -13.251717 -0.000000 -11.019013
LeftHandThumb1 -26.253704 0.000000 33.147579
Head 1.219069 8.899255 3.714385
254
root 2.893477 37.000706 1.808238 -0.541248 -2.757464 1.683955
RightUpLeg 7.494601 -6.448467 -3.225571
RightLeg -4.744033 -0.000000 0.000000
RightFoot -12.940923 -15.769007 15.838906
RightToeBase 14.944620 -0.000000 -0.000000
LeftUpLeg 5.042743 0.408002 1.332923
LeftLeg -1.321853 -0.000000 0.000000
LeftFoot -10.124466 13.412090 -16.373985
LeftToeBase 9.595066 -0.000000 -0.000000
Spine 1.247197 -2.710258 -0.506226
RightShoulder 6.420310 -27.318147 -4.130548
RightArm 25.391008 -2.172409 79.790084
RightForeArm 92.655560 -0.000000 76.778987
RightHand 11.762902 0.000000 16.820575
RightHandThumb1 -24.326973 -0.000000 -32.862282
LeftShoulder -17.963029 38.284913 -1.995531
LeftArm 49.826672 25.347567 -52.564050
LeftForeArm 24.241883 0.000000 29.289559
LeftHand -13.273336 -0.000000 -10.948704
LeftHandThumb1 -26.253704 0.000000 33.147579
Head 1.216004 8.894448 3.740211
255
root 2.894065 37.000810 1.807891 -0.542818 -2.775382 1.681187
RightUpLeg 7.490710 -6.432386 -3.222460
RightLeg -4.739881 -0.000000 0.000000
RightFoot -12.928506 -15.778942 15.794952
RightToeBase 14.935919 -0.000000 -0.000000
LeftUpLeg 5.046436 0.424452 1.333045
LeftLeg -1.320969 -0.000000 0.000000
LeftFoot -10.127242 13.420910 -16.358141
LeftToeBase 9.570873 -0.000000 -0.000000
Spine 1.253965 -2.706160 -0.506383
RightShoulder 6.437462 -27.320545 -4.132961
RightArm 25.385962 -2.196639 79.775111
RightForeArm 92.660844 -0.000000 76.777437
RightHand 11.732439 -0.000000 16.822778
RightHandThumb1 -24.326973 -0.000000 -32.862282
LeftShoulder -17.958083 38.287211 -1.975919
LeftArm 49.811982 25.351401 -52.584420
LeftForeArm 24.235277 -0.000000 29.280243
LeftHand -13.285375 -0.000000 -10.892062
LeftHandThumb1 -26.253704 0.000000 33.147579
Head 1.222299 8.898631 3.763214
256
root 2.894925 37.001108 1.807686 -0.543255 -2.794545 1.677622
RightUpLeg 7.485010 -6.433751 -3.222373
RightLeg -4.735007 -0.000000 0.000000
RightFoot -12.923801 -15.755642 15.811212
RightToeBase 14.913672 -0.000000 -0.000000
LeftUpLeg 5.052720 0.417594 1.334034
LeftLeg -1.329099 -0.000000 0.000000
LeftFoot -10.134596 13.447879 -16.363834
LeftToeBase 9.560355 -0.000000 -0.000000
Spine 1.255898 -2.697134 -0.502392
RightShoulder 6.456680 -27.336552 -4.141929
RightArm 25.394324 -2.214663 79.763183
RightForeArm 92.643441 -0.000000 76.767644
RightHand 11.725704 -0.000000 16.799951
RightHandThumb1 -24.326973 -0.000000 -32.862282
LeftShoulder -17.954036 38.301194 -1.959300
LeftArm 49.813990 25.349449 -52.600811
LeftForeArm 24.199691 -0.000000 29.267183
LeftHand -13.293434 0.000000 -10.918140
LeftHandThumb1 -26.253704 0.000000 33.147579
Head 1.239734 8.886902 3.792592
257
root 2.894871 37.001590 1.807492 -0.543131 -2.815536 1.674346
RightUpLeg 7.479448 -6.402835 -3.216603
RightLeg -4.730476 -0.000000 0.000000
RightFoot -12.923609 -15.763334 15.812758
RightToeBase 14.910340 -0.000000 -0.000000
LeftUpLeg 5.053630 0.429308 1.337038
LeftLeg -1.326477 -0.000000 0.000000
LeftFoot -10.134443 13.455872 -16.366079
LeftToeBase 9.589610 -0.000000 -0.000000
Spine 1.258794 -2.689479 -0.503809
RightShoulder 6.472709 -27.350417 -4.144135
RightArm 25.395329 -2.234928 79.758999
RightForeArm 92.642228 -0.000000 76.769347
RightHand 11.800509 -0.000000 16.741759
RightHandThumb1 -24.326973 -0.000000 -32.862282
LeftShoulder -17.960520 38.306540 -1.943737
LeftArm 49.818889 25.365575 -52.595231
LeftForeArm 24.182464 -0.000000 29.270648
LeftHand -13.274331 -0.000000 -10.950846
LeftHandThumb1 -26.253704 0.000000 33.147579
Head 1.254312 8.903881 3.840836
258
root 2.895860 37.002080 1.806932 -0.541684 -2.831625 1.670310
RightUpLeg 7.473463 -6.397005 -3.211829
RightLeg -4.732362 -0.000000 0.000000
RightFoot -12.912626 -15.774481 15.819180
RightToeBase 14.931156 -0.000000 -0.000000
LeftUpLeg 5.052646 0.461576 1.338920
LeftLeg -1.324312 -0.000000 0.000000
LeftFoot -10.134568 13.446702 -16.353077
LeftToeBase 9.591202 -0.000000 -0.000000
Spine 1.255331 -2.669996 -0.500548
RightShoulder 6.475467 -27.355402 -4.139269
RightArm 25.382690 -2.262397 79.741099
RightForeArm 92.655679 0.000000 76.762632
RightHand 11.740805 -0.000000 16.659214
RightHandThumb1 -24.326973 -0.000000 -32.862282
LeftShoulder -17.958203 38.338020 -1.925118
LeftArm 49.861464 25.377411 -52.579575
LeftForeArm 24.159016 -0.000000 29.256301
LeftHand -13.266528 -0.000000 -10.948294
LeftHandThumb1 -26.253704 0.000000 33.147579
Head 1.283596 8.851322 3.859737
